<svg width="166px" height="41px" viewBox="0 0 186 45" version="1.1" xmlns="http://www.w3.org/2000/svg" xmlns:xlink="http://www.w3.org/1999/xlink">
	<g stroke="none" stroke-width="1" fill="none" fill-rule="evenodd" transform="translate(-419.000000, -29.000000)">
		<g transform="translate(419.000000, 29.000000)">
			<polyline id="Fill-1" fill="#222222" points="184 12.1516721 92.1294585 0 91.8886973 0.000788199527 0.0844637786 12.1296025 0 14 92.0118407 1.84438689 183.877646 13.9952708 184 12.1516721"></polyline>
			<path d="M184.000846,25.8588891 C184.292724,25.8588891 184.552453,25.8365859 184.552453,25.4831653 C184.552453,25.1983701 184.296108,25.1426121 184.058376,25.1426121 L183.58714,25.1426121 L183.58714,25.8588891 L184.000846,25.8588891 Z M183.58714,27.1550504 L183.243655,27.1550504 L183.243655,24.8466652 L184.111675,24.8466652 C184.645516,24.8466652 184.911168,25.0508256 184.911168,25.5054686 C184.911168,25.915505 184.659052,26.0965044 184.324027,26.1411109 L184.967851,27.1550504 L184.582064,27.1550504 L183.981387,26.1565516 L183.58714,26.1565516 L183.58714,27.1550504 Z M184.005076,27.6671671 C184.896785,27.6671671 185.599831,26.960326 185.599831,25.9944242 C185.599831,25.0508256 184.896785,24.3354064 184.005076,24.3354064 C183.099831,24.3354064 182.396785,25.0508256 182.396785,25.9944242 C182.396785,26.960326 183.099831,27.6671671 184.005076,27.6671671 Z M182,25.9944242 C182,24.8466652 182.919628,24 184.005076,24 C185.080372,24 186,24.8466652 186,25.9944242 C186,27.1550504 185.080372,28 184.005076,28 C182.919628,28 182,27.1550504 182,25.9944242 Z" id="Fill-2" fill="#222222"></path>
			<path d="M142.353389,40.9836467 C141.695993,41.7124878 140.892939,42.0827798 139.966574,42.0827798 C138.051419,42.0827798 136.86225,40.2814227 136.71582,38.5873172 C136.4692,35.7705927 136.621796,30.3735671 138.745036,28.0179462 C139.403202,27.2867565 140.208569,26.9156816 141.138787,26.9156816 C143.053172,26.9156816 144.24234,28.7162559 144.390312,30.4103614 C144.63539,33.2270859 144.482024,38.6225458 142.353389,40.9836467 Z M148.965875,31.3200429 C148.613672,27.2804936 146.478871,25.1064959 142.79345,25.0078558 C142.765706,25.0070729 142.485947,25.0000272 142.461285,25.0000272 C140.937638,24.9961129 137.814048,25.4133764 135.602179,27.4096653 C134.61493,28.3005581 133.765634,29.6016687 133.63847,29.7973833 C133.064309,30.6773161 132.809212,31.5650775 132.518664,32.7346679 C132.194205,34.0850986 131.902885,36.2097763 132.030819,37.6792015 C132.417704,42.1101799 134.352126,44 138.499958,44 C141.484825,44 144.267773,42.706718 146.547462,40.2571541 C147.776707,38.9771806 148.111184,37.8944875 148.515024,36.2645764 C148.837171,34.9329343 149.095351,32.8059081 148.965875,31.3200429 Z" id="Fill-3" fill="#222222"></path>
			<path d="M160.184178,40.9539791 C159.514235,41.6860986 158.695851,42.0568615 157.751804,42.0568615 C155.800092,42.0568615 154.588224,40.2532138 154.438213,38.5569541 C154.188457,35.7366481 154.34161,30.3327598 156.506164,27.9733598 C157.177678,27.2404565 157.997633,26.8696936 158.946393,26.8696936 C160.896534,26.8696936 162.109187,28.6725574 162.259197,30.369601 C162.508954,33.1891232 162.353445,38.5922276 160.184178,40.9539791 Z M181.971879,36.9139965 C181.762963,34.5420549 179.559924,33.2518315 177.737803,32.8677431 L175.404388,32.3637251 C173.990674,32.0682122 172.470145,31.6276863 172.338198,30.1383641 C172.2628,29.2988566 172.452866,28.6255262 172.901328,28.1371853 C173.394557,27.5978938 174.186237,27.3141388 175.188404,27.3141388 C176.606046,27.3141388 178.125004,27.9012453 179.467247,28.969638 L179.855233,30.7889627 C179.867014,30.8391294 179.910997,30.8744028 179.962047,30.8744028 L180.730951,30.8744028 L181.082024,25.9956966 C179.977755,25.441512 178.703056,25.1060225 177.340392,25.0049054 L177.340392,25.0033377 C177.332538,25.0033377 177.325469,25.0033377 177.316045,25.0033377 C177.038014,24.9829575 176.757627,24.969632 176.471743,24.969632 C175.993436,24.969632 175.600738,25.0143116 175.204897,25.08721 C171.222149,25.5786864 169.619153,27.9694405 169.012827,29.4289764 C168.857318,29.7644658 168.730084,30.181476 168.676677,30.5608613 C168.627197,30.9277049 168.618558,31.3227672 168.655471,31.7436967 C168.911511,34.6329819 171.454626,35.7272418 173.543783,36.1379812 L175.281866,36.4852285 C177.032516,36.8191502 177.940435,37.6226004 178.056674,38.9441779 C178.122648,39.6896229 177.94986,40.2947581 177.539883,40.739987 C176.849519,41.4932706 175.653359,41.6508252 174.770573,41.6508252 C173.332511,41.6508252 170.787039,40.7893698 169.683556,39.5461777 L169.333269,37.7636941 C169.328557,37.7088243 169.281433,37.6657123 169.225669,37.6657123 L168.44577,37.6657123 C168.385295,37.6657123 168.3366,37.7135274 168.3366,37.7731003 C168.335815,38.3421782 168.31618,38.9073368 168.283193,39.4819016 L168.200726,39.5046334 C168.188945,39.5077688 168.176379,39.5124719 168.166169,39.5195266 C167.643094,39.8918572 166.666846,40.5840001 166.423373,40.5840001 C166.168119,40.5840001 165.961559,40.3496278 165.9325,40.0251123 C165.901869,39.6833521 165.947422,38.8704957 165.99219,38.5381416 L166.10136,37.5771369 C166.10136,37.5755691 166.102931,37.5755691 166.102931,37.5755691 L166.170475,36.9618116 L168.324034,17.719768 C168.40493,16.8630157 168.521954,16.2602321 168.638978,15.4748106 C168.645261,15.4364018 168.631124,15.3995606 168.601279,15.3744773 L168.181877,15.0256624 C168.150461,14.9997952 168.107264,14.9919567 168.06878,15.0092014 C165.784845,15.9968573 162.902438,16.4318961 160.586302,16.7838465 C160.539963,16.7893335 160.50305,16.8253907 160.495196,16.872422 L160.319267,17.9564918 C160.313769,17.987846 160.323194,18.0207678 160.344399,18.0450673 C160.36482,18.0677991 160.394665,18.0819084 160.426866,18.0819084 L162.169662,18.0819084 C163.166331,18.0819084 163.574738,18.5059733 163.676054,19.6464807 C163.702757,19.9498321 163.684693,20.3119726 163.663487,20.7321182 L163.337548,25.3952646 L163.445932,25.4031031 L163.442005,25.4501344 C162.657394,25.1577569 161.757329,24.9954991 160.738669,24.9664966 C160.443359,24.958658 160.161402,24.9570903 159.891225,24.9617934 C159.580993,24.9555226 158.928328,24.9649288 158.103662,25.098184 C157.589226,25.1742178 157.124271,25.2800381 156.700942,25.4187802 C154.893744,25.966694 152.798304,27.1581518 151.575441,29.7182184 C151.100276,30.5765384 150.826958,31.5312723 150.529292,32.7117562 C150.19864,34.0662556 149.900975,36.1936349 150.03135,37.6657123 C150.424049,42.102325 152.396181,43.9945481 156.624759,43.9945481 C158.524634,43.9945481 160.338902,42.7427335 161.77068,41.4454555 C161.717273,41.7033434 161.669364,41.9635828 161.689785,42.2112807 C161.763612,43.0241371 162.248987,43.9749518 163.379959,43.9749518 C164.329504,43.9749518 166.325983,42.8391476 168.114333,41.5403018 C168.071921,41.957312 168.024797,42.3845124 167.973747,42.8297413 C167.966678,42.8814757 167.999665,42.9308585 168.049145,42.9457517 C169.880691,43.4999363 171.668254,44.0517694 173.407123,43.9961158 C176.23848,43.9059726 179.570134,43.335327 181.400895,39.6653234 C181.908261,38.6455296 182.072409,38.0396106 181.971879,36.9139965 Z" id="Fill-4" fill="#222222"></path>
			<path d="M39.0906332,41.9212908 C38.4127517,42.6664103 37.5846715,43.0425639 36.6294388,43.0425639 C34.6561919,43.0425639 33.4291708,41.2065192 33.2765879,39.4782892 C33.0246671,36.60323 33.1796342,31.0974917 35.3698349,28.6936228 C36.0493058,27.9485033 36.8797701,27.5699539 37.8381817,27.5699539 C39.8114286,27.5699539 41.0376549,29.4075958 41.1894431,31.1366245 C41.4429533,34.0076905 41.2856021,39.5110329 39.0906332,41.9212908 Z M45.9648119,32.0630324 C45.5944804,27.8438831 43.3009683,25.6149136 39.3330175,25.6149136 C36.3012265,25.6149136 33.5094358,26.8983081 31.0347315,29.4331519 C31.0037381,29.4658956 30.9783076,29.4970421 30.9481089,29.5289872 L26.4238662,29.5130147 L27.1200258,21.6800757 C27.2829398,19.7386122 27.8861192,19.6922918 28.9073122,19.612429 L30.5451946,19.4950308 C30.6000291,19.4910376 30.642943,19.4455159 30.6461218,19.3912092 L30.7208239,18.0103822 C30.7208239,18.006389 30.7168504,18.0047918 30.7168504,18 L25.5719448,18 C25.0696927,18.006389 24.56903,18.0119794 24.0691619,18.0119794 C23.6241284,18.0119794 23.1783002,18.006389 22.7308825,18 L18.1430636,18 L18.0683615,19.3784311 C18.064388,19.4391268 18.1104808,19.4910376 18.1716729,19.4950308 L20.1814761,19.612429 C21.3838614,19.6906945 21.6111464,19.9853881 21.6667756,20.6155052 C21.7208153,21.2328443 21.705716,22.0458471 21.6103517,23.5161204 L21.1748546,29.5162092 L9.86385043,29.5249941 L10.6808049,21.6824716 C10.8818646,19.7362163 11.4715341,19.6890973 12.4680913,19.612429 L14.105179,19.4950308 C14.1608082,19.4910376 14.2037221,19.4455159 14.2069009,19.3912092 L14.2808083,18.0103822 C14.281603,18.006389 14.2776295,18.0047918 14.2768348,18 L9.02464434,18 C8.62411416,18.0047918 8.22358397,18.0119794 7.8262326,18.0119794 C7.38358318,18.0119794 6.93696023,18.006389 6.48556908,18 L1.70384268,18 L1.62834592,19.3784311 C1.6243724,19.4391268 1.67046516,19.4910376 1.73165727,19.4950308 L3.74225521,19.612429 C4.94464046,19.6906945 5.17272015,19.9853881 5.22755464,20.6155052 C5.27762091,21.1865239 5.31099842,21.9755679 5.17113074,23.5137246 L3.76609629,39.6420078 C3.62543391,41.2456519 3.46808277,42.2702911 3.30040049,42.6807856 C3.07391021,43.1927059 2.6670224,43.3236808 2.0860947,43.3644108 L0.1740399,43.4826077 C0.118410709,43.4858022 0.0747020577,43.5313239 0.0715232468,43.5872279 L0,44.9209359 L12.3814687,44.9209359 L12.4537867,43.5992073 C12.4569655,43.5385116 12.4108727,43.4858022 12.3504753,43.4826077 L10.4185529,43.3652094 C9.25192932,43.2893398 8.98014098,42.8932205 8.93007471,42.3222018 C8.88477665,41.8134761 8.91735947,41.3111394 8.95391579,40.8431436 L9.73431389,31.6389612 L20.9308808,31.6389612 L20.2045225,39.6420078 C20.0646548,41.2472492 19.9073037,42.2702911 19.7404161,42.6807856 C19.5123364,43.1927059 19.107038,43.3236808 18.5261103,43.3644108 L16.6132608,43.4826077 C16.5576316,43.4858022 16.5131283,43.5313239 16.5107442,43.5872279 L16.4376315,44.9209359 L29.0567164,44.9209359 L29.1282396,43.5992073 C29.129829,43.5696581 29.1194979,43.5401088 29.100425,43.5201432 C29.0813521,43.4977816 29.0535375,43.4842049 29.0249282,43.4826077 L26.8569792,43.3652094 C25.6903555,43.2893398 25.4185672,42.8932205 25.3677062,42.3222018 C25.3232029,41.8134761 25.3557857,41.3127366 25.3931367,40.8431436 L26.2188329,31.6445516 L29.5748625,31.6445516 C29.349167,32.2035909 29.1822794,32.8033602 29.0058554,33.5061524 C28.6704908,34.8797918 28.3708879,37.0464683 28.5028085,38.5518812 C28.9017493,43.0721131 30.8964532,45 35.1735434,45 C38.2506324,45 41.1210987,43.6806673 43.4726241,41.1817617 C44.7385856,39.8760057 45.0826918,38.7723024 45.4999108,37.1087612 C45.8320965,35.7439068 46.098322,33.5724385 45.9648119,32.0630324 Z" id="Fill-5" fill="#222222"></path>
			<path d="M75.55122,40.5501358 L75.1302405,40.8837136 C74.4360215,41.4245632 73.4598258,42.1394887 72.9983369,42.1394887 C72.7727555,42.1394887 72.6075409,41.976748 72.5781518,41.7225163 C72.5257279,41.298257 72.6512274,39.9841869 72.9204954,38.1171223 L73.9904187,30.7605963 C74.1262442,29.7469082 74.1429245,28.7550807 74.0380768,27.8927981 C73.9244918,26.9463113 73.3279718,26.0006342 72.2556656,25.9925377 C71.8497778,25.989299 71.3366595,26.0702645 70.7155162,26.26863 C69.9228039,26.5220521 68.956934,26.9114962 67.7527738,27.8166905 C64.8345124,30.0108558 62.8972125,32.8268361 62.8972125,32.8268361 L62.7073746,34.0356511 L63.056867,31.8026224 C63.3451982,30.0278585 63.4436915,28.8141856 63.3563184,28.0927829 C63.1895152,26.7179886 62.5556631,25.9982052 61.4722367,25.9925377 C61.179934,25.9909184 60.8669794,26.038688 60.3554496,26.1649942 C59.5571773,26.36255 58.4801052,26.7754741 57.1901606,27.806165 C54.7333879,29.7687689 53.0002234,32.2204044 52.6094274,32.7968788 L53.2837888,27.7025292 L53.2845831,27.7025292 C53.2845831,27.6968616 53.2853774,27.691194 53.2861717,27.6847168 L53.5760915,25.4905515 C53.582446,25.4419722 53.5609998,25.4022991 53.5109589,25.3666743 L53.0073721,25.0193323 C52.9787773,24.9990909 52.9422394,24.994233 52.9096731,25.0071874 C50.644327,25.9293846 46.4107032,26.5698217 44.0841959,26.9171637 C44.039715,26.923641 44.0063544,26.9584562 44,27.0029872 L44.6997791,27.7697305 C44.6958076,27.7996878 44.7053392,27.8312643 44.7251967,27.8547443 C44.7466428,27.879034 44.7752377,27.8871305 44.8054211,27.8919884 L47.0795046,27.8749857 C48.0866781,27.8644602 48.5275151,28.2393305 48.6808152,29.2659731 C48.7213245,29.5380172 48.7197359,29.8651178 48.717353,30.2448461 C48.717353,30.2448461 48.6768436,31.4293714 48.6712835,31.9151645 L48.6426887,32.951523 C48.5926478,34.1967725 48.4862114,35.7067791 48.3575347,36.8402962 C48.226475,37.9794809 47.7475116,41.9265494 47.101745,44.903651 C47.1009507,44.908509 47.1033336,44.9133669 47.1033336,44.9182248 L51.7110731,44.9182248 C51.7221933,44.0769932 51.8556358,42.021279 52.178122,40.0756779 C52.8691638,35.9002867 54.812818,32.9312816 56.3219897,31.1759494 C57.0940502,30.2780419 57.8724651,30.1735964 58.3911435,30.1735964 C58.780351,30.1735964 59.0162583,30.6601991 59.0710651,31.111177 C59.2338968,32.4543947 58.9964008,34.43724 58.8049743,36.0290219 C58.7716137,36.3148301 58.738253,36.5860646 58.7096582,36.8402962 C58.57701,37.9835292 58.0956636,41.9419328 57.4546628,44.903651 C57.4522799,44.9101283 57.4554571,44.9166055 57.4554571,44.9247021 L62.1291235,44.9247021 C62.1299178,44.9182248 62.1338893,44.9149862 62.1338893,44.9101283 C61.9980639,42.882752 62.2029935,40.5711868 62.697843,38.5656712 C63.2165215,36.4435653 64.0974011,34.5740717 65.3921116,32.8511257 C66.0053119,32.0455189 67.5534043,30.1735964 68.6662199,30.1735964 C69.0498672,30.1735964 69.2953062,30.3841067 69.3405813,30.7508805 C69.4390746,31.5702514 68.835406,35.2736137 68.6630427,36.113226 C68.492268,37.0006079 67.7448308,42.349999 67.9847097,43.8251905 C68.1046491,44.561167 68.8020453,45 69.8513168,45 C71.2850299,45 73.8498275,43.9093946 76,42.0479976 L75.55122,40.5501358" id="Fill-6" fill="#222222"></path>
			<path d="M125.128202,40.9778354 C124.453211,41.7057542 123.628836,42.0747848 122.679579,42.0747848 C120.716255,42.0747848 119.496685,40.2780035 119.344931,38.5912291 C119.093587,35.7833194 119.248503,30.4054584 121.426023,28.0563014 C122.102596,27.3283826 122.928552,26.9585718 123.88255,26.9585718 C125.845875,26.9585718 127.065444,28.7537927 127.216408,30.4421274 C127.468542,33.2476966 127.310465,38.6247774 125.128202,40.9778354 Z M80.0080927,32.5611279 C80.625386,28.8895461 81.8694573,27.1052478 83.8122318,27.1052478 C84.8421079,27.1052478 85.5724267,27.8378478 85.6743868,28.970686 C85.7423602,29.7298125 85.5977191,30.4007773 85.3447949,31.0085466 C85.1796037,31.4056641 84.5401795,32.6820576 82.5989857,33.3085515 C81.5691097,33.6409132 80.3463789,33.676802 79.8579189,33.676802 C79.8919056,33.3943726 79.9251019,33.1306678 79.9559271,32.8966103 L80.0080927,32.5611279 Z M131.965062,31.3471497 C131.604644,27.3213609 129.415269,25.1555489 125.634051,25.0572447 C125.606387,25.0564646 125.319476,25.0494428 125.294184,25.050223 C123.730796,25.0447617 120.527352,25.4621642 118.259728,27.4508727 C117.772058,27.8791979 117.316794,28.4019263 116.96191,28.8505365 L105.053128,28.8513167 C104.948007,28.8513167 104.858693,28.9308962 104.849208,29.0354419 L104.58838,30.7222162 C104.584428,30.7807306 104.602607,30.8345638 104.642127,30.8782546 C104.680065,30.9188245 104.736183,30.9437907 104.793881,30.9437907 L108.549807,30.9437907 L107.949111,40.0455063 C107.287556,41.2228155 104.484839,41.9530749 101.518512,41.3390641 C98.2842426,40.3802086 96.3343545,37.6432963 95.9541777,33.3826697 C95.5613547,28.9972125 96.5058688,23.0700966 99.0327404,20.7248406 C100.88304,19.0099793 104.007445,18.8242937 105.265743,18.8242937 C107.632166,18.8242937 110.166151,19.8299608 111.021351,20.3168003 C111.143071,20.3877978 111.245031,20.4400706 111.328812,20.482201 C111.581736,20.6093722 111.581736,20.6093722 111.582527,20.8543524 L111.846516,24.3761374 C111.855211,24.488485 111.950057,24.5758665 112.064664,24.5758665 L113.429664,24.5758665 C113.536367,24.5758665 113.627261,24.5009681 113.64544,24.3964224 C113.784549,23.5959458 113.88888,22.7424162 113.999534,21.8412948 C114.148127,20.6195147 114.301463,19.3548241 114.567033,17.9957302 C114.586002,17.8989865 114.536208,17.8022427 114.445313,17.7593321 C111.936621,16.5921655 109.275383,16 106.538268,16 C105.131377,16 103.117467,16.1053259 101.511398,16.6077693 C93.7276538,19.057571 89.6935116,25.2405898 90.4404286,33.5706959 C90.522629,34.4866409 90.6862394,35.3354894 90.9115,36.1351858 C89.5694206,37.7049314 84.7456805,40.9591108 82.5444489,41.1510379 C82.2686034,41.176004 81.8251955,41.1682021 81.38653,40.9809561 C80.505247,40.6010028 80.1155855,39.8621613 79.8958575,39.3550367 C79.7741377,39.0726074 79.6049946,38.4164662 79.6105273,37.6479774 C79.6160601,37.0144618 79.6318678,36.4698881 79.7085355,35.5500421 C81.6062579,35.488407 84.0509291,34.8119808 85.7644911,33.9483087 C87.6558904,33.005057 89.7907294,31.5180117 89.5085607,28.3746196 C89.3876313,27.0178663 88.6256969,25.9848926 87.4432759,25.448901 C86.8568078,25.1836358 86.228449,25.0611457 85.3076466,25.0346192 C84.3876346,25.0080927 83.2858332,25.1251214 82.4772659,25.3186089 C77.7246607,26.4584689 76.4181488,30.7510833 76.4181488,30.7510833 L76.4228911,30.7526437 C76.0245354,31.6381612 75.7779342,32.6055989 75.5297523,33.713471 C75.248374,34.9914249 74.8950704,37.5754196 75.0294364,39.0624649 C75.0484058,39.2816987 75.075279,39.5009326 75.1108464,39.6975409 C75.1464139,39.8957095 75.3882728,40.8085338 75.5060406,41.1408954 C75.6364547,41.5068053 75.9873871,42.1036519 76.3185598,42.4843854 C77.1144809,43.3956492 78.2526402,43.9066748 79.691147,43.976892 C81.1351865,44.0845585 84.1441949,43.9113559 87.4551318,41.3437452 C90.0144093,39.3581575 91.1162106,38.411785 91.5920244,37.9608343 C93.4446947,41.8555509 97.3721345,43.956607 103.039219,43.956607 C103.173585,43.956607 103.308741,43.9550467 103.443107,43.9534863 C106.414968,43.9019936 108.53637,43.121802 111.22211,42.132519 L111.780124,41.9273286 C111.861534,41.8984615 111.916861,41.8251235 111.922394,41.7393024 L112.681166,30.9437907 L115.658559,30.9437907 C115.43646,31.4883644 115.27285,32.0742884 115.096593,32.756956 C114.763049,34.1035668 114.465073,36.2202267 114.597858,37.6862068 C114.993052,42.1020915 116.976927,43.9854741 121.231588,43.9854741 C124.292762,43.9854741 127.146854,42.6950372 129.484033,40.2553779 C130.745492,38.9782042 131.087731,37.8999793 131.503475,36.2764005 C131.832276,34.9477342 132.097847,32.8287337 131.965062,31.3471497 Z" id="Fill-7" fill="#222222"></path>
		</g>
	</g>
</svg>